# xmcd
#
# Track frame offsets: 
#        150
#        23164
#        48187
#        75614
#        98238
#        124655
#        151827
#        173530
#        205229
#        232973
#
# Disc length: 3361 seconds
#
# Revision: 0
# Processed by: cddbd v1.5.2PL0 Copyright (c) Steve Scherf et al.
# Submitted via: ExactAudioCopy v1.0b3
#
DISCID=6b0d1f0a
DTITLE=Nguyet Anh - Sai Gon Trong Long Ta Mai Mai
DYEAR=1996
DGENRE=
TTITLE0=Sai Gon trong long ta mai mai
TTITLE1=Tinh van khong phai
TTITLE2=Mot lan di
TTITLE3=Nguyet Anh, Viet Dzung - Em van mo mot ngay ve
TTITLE4=Mua Sai Gon con buon khong em
TTITLE5=Sai Gon niem thuong nho khong nguoi
TTITLE6=Nguyet Anh, Viet Dzung - Xin hay lam anh duoc
TTITLE7=Tra ta song nui
TTITLE8=Nguyet Anh, Viet Dzung - Hat cho ngay Sai Gon quat khoi
TTITLE9=Nguoi Viet Nam oi dap loi song nui
EXTD=
EXTT0=
EXTT1=
EXTT2=
EXTT3=
EXTT4=
EXTT5=
EXTT6=
EXTT7=
EXTT8=
EXTT9=
PLAYORDER=
